<svg width="98" height="86" viewBox="0 0 98 86" fill="none" xmlns="http://www.w3.org/2000/svg">
<path d="M89.5859 49.8359C88.0547 29.5469 73.7813 15.5469 50 15.5469C26.2187 15.5469 11.9141 30.4141 10.5078 50.7109C9.6875 62.5391 14.0859 73.0781 22.9375 79.0859C28.7656 83.0469 36.9062 85.2422 50.1016 85.2422C63.5234 85.2422 71.2187 82.3437 77.0469 78.4219C86.7578 71.8984 90.4688 61.4922 89.5859 49.8359Z" fill="#FFC022"/>
<path d="M41.9687 28.2812C36.1719 13.2812 23.5156 3.07813 18.6484 1.55469C16.8125 0.976563 14.5078 0.921875 13.4688 2.60938C10.8438 6.86719 7.48438 20.5391 14.9141 39.9375L41.9687 28.2812Z" fill="#FFC022"/>
<path d="M28.2187 21.7266C29.4219 20.7187 30.0078 19.7344 28.6875 17.6953C26.6406 14.5312 22.9609 10.8359 21.5312 9.70312C19.1875 7.84374 17.375 7.21874 16.6797 10.2109C15.3906 15.7422 15.4922 23.25 16.875 27.3906C17.3594 28.8516 18.8594 29.625 20.0156 28.6172L28.2187 21.7266Z" fill="#FFD1D1"/>
<path d="M42.2812 30.1719C43.1641 30.9219 44.9531 30.8125 45.9922 29.6094C47.25 28.1484 48.5625 23.2266 47.7422 15.6172C44.0937 15.75 40.6406 16.2734 37.4219 17.1563C40.0234 21.4219 40.6484 28.7813 42.2812 30.1719Z" fill="#FF9B31"/>
<path d="M57.7188 30.1719C56.8359 30.9219 55.0469 30.8125 54.0078 29.6094C52.75 28.1484 51.4375 23.2266 52.2578 15.6172C55.9063 15.75 59.3594 16.2734 62.5781 17.1563C59.9766 21.4219 59.3516 28.7813 57.7188 30.1719Z" fill="#FF9B31"/>
<path d="M62.4219 17.8281C68.7344 8.13281 77.5625 1.61719 81.2266 0.453128C83.0391 -0.124997 85.1484 -0.0312475 86.1797 1.66407C88.7734 5.92188 90.9687 19.0391 85.8516 37.4063L67.1562 28.3906L62.4219 17.8281Z" fill="#FFC022"/>
<path d="M76.2109 24.8672C78.1094 26.7656 79.6562 28.0391 80.7734 29.25C81.5156 30.0547 82.875 29.6875 83.0937 28.6094C85.0078 19.3906 84.3984 11.5313 83.0937 9.46877C82.4687 8.48439 81.3047 8.22658 80.2422 8.58595C78.3359 9.21876 73.4766 12.8438 70.0469 18.1328C69.6484 18.75 69.7969 19.5781 70.4062 19.9922C71.6406 20.8281 73.7969 22.4453 76.2109 24.8672Z" fill="#FFD1D1"/>
<path d="M43.4922 55.7422C43.4531 53.3359 46.9062 52.1875 50.1641 52.1328C53.4297 52.0781 56.9453 53.1406 56.9844 55.5469C57.0234 57.9531 52.9062 61.1172 50.3125 61.1172C47.7266 61.1172 43.5391 58.1406 43.4922 55.7422Z" fill="black"/>
<path d="M5.23438 50.4922C5.5 50.8125 8.67969 50.7656 16.4531 54.4531" stroke="#9E9E9E" stroke-width="3" stroke-miterlimit="10" stroke-linecap="round"/>
<path d="M2.26562 59.7344C2.26562 59.7344 7.28125 57.9844 15.9062 59.5156" stroke="#9E9E9E" stroke-width="3" stroke-miterlimit="10" stroke-linecap="round"/>
<path d="M6.88281 67.1016C6.88281 67.1016 9.02344 66.0234 16.7812 65.3438" stroke="#9E9E9E" stroke-width="3" stroke-miterlimit="10" stroke-linecap="round"/>
<path d="M94.4297 47.7422C94.4297 47.7422 91.7656 48 83.5391 52.6953" stroke="#9E9E9E" stroke-width="3" stroke-miterlimit="10" stroke-linecap="round"/>
<path d="M95.6406 56.3203C95.6406 56.3203 91.6641 56.0391 83.1016 57.8594" stroke="#9E9E9E" stroke-width="3" stroke-miterlimit="10" stroke-linecap="round"/>
<path d="M94.1016 64.5703C94.1016 64.5703 90.3281 63.2344 82.5547 62.8125" stroke="#9E9E9E" stroke-width="3" stroke-miterlimit="10" stroke-linecap="round"/>
<path d="M75.0703 46.8516C74.8047 51.1563 72.1328 53.5234 69.0938 53.5234C66.0547 53.5234 63.5938 50.4922 63.5938 46.7578C63.5938 43.0234 66.1563 39.9531 69.5703 40.1406C73.5313 40.3672 75.2891 43.3359 75.0703 46.8516Z" fill="#000200"/>
<path d="M35.9375 46.4141C36.5469 50.7969 34.7031 53.4688 31.6484 54.0859C28.5938 54.7031 25.9766 52.6484 25.2188 48.8984C24.4531 45.1406 25.9219 41.6172 29.3906 41.1094C33.4141 40.5234 35.4375 42.8281 35.9375 46.4141Z" fill="#000200"/>
<path d="M35.1484 61.5313C33.1406 62.8359 35.5156 65.8594 36.9063 66.8828C38.2969 67.9063 40.7969 69.1641 44.4609 68.7891C48.7891 68.3516 50.0313 65.125 50.0313 65.125C50.0313 65.125 51.5703 68.7188 56.9219 68.8672C62.3516 69.0156 64.0313 66.0781 64.7656 65.2031C65.5 64.3203 66.2344 62.0469 64.9844 61.1719C63.7344 60.2891 62.8594 61.3906 61.5391 63.2266C60.2188 65.0625 57.5078 66.0859 54.8672 64.8359C52.2266 63.5859 52.0781 59.3359 52.0781 59.3359L48.3359 59.5547C48.3359 59.5547 47.75 63.2188 46.0625 64.3906C44.375 65.5625 40.3438 65.8594 38.6563 63.2891C37.9141 62.1484 36.8359 60.4297 35.1484 61.5313Z" fill="black"/>
</svg>
