<svg width="300" height="319" viewBox="0 0 300 319" fill="none" xmlns="http://www.w3.org/2000/svg">
<ellipse cx="135.75" cy="296.844" rx="113.25" ry="21.2594" fill="#C4C4C4"/>
<path d="M253.828 112.375C253.922 112.375 254.016 112.375 254.109 112.35C254.25 112.326 257.766 111.907 263.742 110.775C270.258 109.52 274.547 109.004 274.594 109.004C276 108.831 277.031 107.503 276.867 106.002C276.703 104.525 275.414 103.443 274.008 103.615C273.82 103.64 269.508 104.156 262.805 105.436C257.016 106.543 253.547 106.961 253.523 106.961C252.117 107.134 251.086 108.462 251.25 109.963C251.414 111.341 252.539 112.375 253.828 112.375Z" fill="#888071"/>
<path d="M274.734 123.226C276.023 123.226 277.148 122.217 277.289 120.839C277.328 120.485 277.3 120.127 277.207 119.784C277.114 119.441 276.957 119.121 276.746 118.843C276.535 118.564 276.273 118.331 275.976 118.159C275.679 117.986 275.353 117.877 275.016 117.837C274.945 117.837 268.43 117.025 265.125 116.459C261.703 115.893 254.016 114.614 254.016 114.614L253.219 119.953L264.305 121.799C267.727 122.389 274.148 123.177 274.43 123.201C274.547 123.201 274.641 123.226 274.734 123.226Z" fill="#888071"/>
<path d="M270.68 134.545C271.805 134.545 272.836 133.782 273.164 132.576C273.562 131.149 272.766 129.648 271.383 129.23L252.914 123.693C252.261 123.518 251.57 123.618 250.986 123.971C250.402 124.324 249.973 124.902 249.79 125.582C249.606 126.263 249.683 126.991 250.004 127.613C250.325 128.234 250.865 128.7 251.508 128.91L269.976 134.446C270.187 134.495 270.445 134.545 270.68 134.545Z" fill="#888071"/>
<path d="M175.101 207.698L200.508 228.145C200.508 228.145 199.523 270.762 200.18 272.485C200.836 274.207 209.742 284.96 208.758 291.185C207.984 296.032 204.469 297.755 194.906 298.124C185.344 298.493 165.867 293.966 165.867 293.966L175.101 207.698Z" fill="#B85C3E"/>
<path d="M100.523 223.962L119.32 235.035C119.32 235.035 116.672 243.351 116.672 255.138C116.672 266.924 117.656 274.306 118.312 276.742C118.969 279.178 124.477 283.779 123.914 290.472C123.656 293.572 119.953 296.008 113.367 295.663C106.781 295.319 97.1953 294.63 97.1953 294.63L87.6328 229.154L100.523 223.962Z" fill="#B85C3E"/>
<path d="M222.047 68.4288C222.047 68.4288 225.117 57.1101 222.492 39.0987C219.844 21.0872 215.461 11.614 211.266 11.1465C207.094 10.679 199.172 18.9957 193.008 28.9365C186.844 38.8772 181.781 56.4212 181.781 56.4212L222.047 68.4288Z" fill="#FB8B02"/>
<path d="M150.352 239.316C150.352 239.316 150.141 260.108 149.695 269.335C149.25 278.562 149.672 299.059 151.453 301.323C154.195 304.792 156.961 304.891 162.891 305.137C166.43 305.284 161.789 282.278 161.789 281.343C161.789 280.408 161.578 225.217 161.578 225.217L150.352 239.316Z" fill="#FB8B02"/>
<path d="M209.086 167.516C209.086 167.516 214.359 185.06 213.047 198.224C211.734 211.388 204.469 228.022 197.203 234.715C189.937 241.408 183.352 244.877 182.695 246.501C182.039 248.125 179.391 270.984 180.281 275.831C181.172 280.678 187.547 293.154 186.445 298.001C185.344 302.848 180.984 305.899 169.734 305.629C155.109 305.284 155.883 302.971 154.781 293.4C154.031 286.953 154.992 242.367 154.992 242.367C154.992 242.367 145.969 243.302 133.219 242.367C120.469 241.432 104.625 235.428 104.625 235.428C104.625 235.428 95.6015 264.98 98.6953 273.986C101.766 282.991 106.828 288.085 105.961 294.31C105.07 300.535 97.3828 303.316 87.914 302.381C78.4453 301.446 71.2031 294.999 70.7578 286.436C70.3125 277.898 70.5468 230.556 69.2109 226.865C67.8984 223.175 63.0468 210.478 63.4922 197.757C63.9375 185.036 64.8047 179.967 64.8047 179.967C64.8047 179.967 53.4375 175.415 42.914 167.049C34.8984 160.676 28.875 152.285 25.664 139.786C20.3906 119.24 27.6328 98.9153 42.164 91.9765C56.1328 85.3083 69.8906 87.8181 70.3125 98.4478C70.7343 109.078 61.7343 106.765 54.914 109.52C48.0937 112.301 40.4062 124.997 48.539 137.473C56.6718 149.948 70.9687 153.86 75.375 154.328C79.7812 154.795 87.914 147.635 104.859 147.167C121.805 146.7 146.203 159.642 146.883 158.018C147.539 156.394 122.695 139.54 120.937 117.616C119.297 97.2914 123.352 87.8181 123.352 87.8181C123.352 87.8181 126.422 53.4192 130.828 37.2532C135.234 21.0872 141.328 9.07956 145.289 9.32561C149.25 9.54707 162 24.1137 166.617 31.274C171.234 38.4343 176.297 49.9744 176.297 49.9744C176.297 49.9744 195.984 49.2116 204.68 52.5088C212.602 55.5107 221.625 60.5795 227.344 70.0527C233.062 79.526 234.82 85.0623 237.469 86.4402C240.117 87.8181 252.656 90.5986 253.758 92.2226C254.859 93.8465 257.719 115.327 257.062 118.551C256.406 121.774 255.891 129.303 252.234 133.56C248.062 138.408 236.508 146.601 227.367 152.728C218.531 158.634 209.953 163.358 209.086 167.516Z" fill="#FFB800"/>
<path d="M128.016 190.129C119.883 190.006 120.094 179.745 119.977 167.024C119.883 155.902 120.305 149.357 120.305 149.357C120.305 149.357 124.969 150.022 129.094 151.67C133.172 153.294 136.688 154.795 136.688 154.795V172.684C136.711 178.81 136.055 190.252 128.016 190.129Z" fill="#FF9B31"/>
<path d="M113.719 147.758C113.719 147.758 113.719 158.486 113.602 167.615C113.484 177.432 114.375 188.062 105.023 187.939C96.9844 187.841 96.9844 177.088 96.8906 164.957C96.8437 158.609 96.6797 147.758 96.6797 147.758C96.6797 147.758 100.641 146.946 105.375 147.069C109.102 147.167 113.719 147.758 113.719 147.758Z" fill="#FF9B31"/>
<path d="M194.977 100.933C196.687 105.288 200.367 111.514 206.437 109.89C210.328 108.856 210.609 100.072 208.336 94.8554C205.641 88.7039 202.055 85.9235 197.859 86.4402C193.242 87.0308 192.797 95.3475 194.977 100.933Z" fill="#2C312C"/>
<path d="M235.148 99.6043C235.266 96.8239 242.086 94.88 247.359 92.7885C251.836 91.0415 254.297 90.9431 255.492 92.0996C256.688 93.256 258.141 96.2579 258.797 100.884C259.453 105.51 259.219 113.334 258.141 118.206C257.039 123.177 255.281 129.402 247.477 132.65C240.773 135.43 236.813 131.616 233.953 129.525C230.32 126.892 231.891 120.642 237.023 123.866C240.867 126.302 243.516 126.991 246.492 124.678C250.57 121.503 251.555 112.104 251.227 111.292C249.797 107.773 244.078 106.912 241.758 105.977C239.438 105.042 235.031 102.04 235.148 99.6043Z" fill="#2C312C"/>
<path d="M189.047 124.136H189.234C189.305 124.136 196.711 123.57 201.328 123.447L214.523 123.103C214.523 123.103 217.289 123.349 217.289 120.495C217.289 117.468 214.406 117.936 214.406 117.936L201.211 118.28C196.477 118.403 189.187 118.944 188.883 118.969C187.523 119.067 186.516 120.322 186.609 121.725C186.703 123.103 187.781 124.136 189.047 124.136Z" fill="#888071"/>
<path d="M193.242 140.991C193.594 140.991 193.969 140.917 194.297 140.745C194.344 140.721 200.18 137.792 205.453 135.898C210.937 133.954 217.078 131.862 217.078 131.862C218.367 131.42 219.094 129.968 218.672 128.615C218.25 127.261 216.867 126.498 215.578 126.941C215.578 126.941 209.391 129.033 203.883 131.001C198.305 132.994 192.422 135.947 192.164 136.095C190.945 136.71 190.43 138.26 191.016 139.539C191.437 140.45 192.328 140.991 193.242 140.991Z" fill="#888071"/>
<path d="M205.219 150.587C205.688 150.587 206.18 150.44 206.602 150.145C206.648 150.12 210.773 147.167 213.539 145.371C216.422 143.526 221.602 140.032 221.602 140.032C221.602 140.032 223.922 138.604 222.422 136.341C220.922 134.077 218.953 135.652 218.953 135.652C218.953 135.652 213.797 139.097 210.961 140.942C208.078 142.787 204 145.74 203.813 145.863C202.688 146.675 202.406 148.275 203.18 149.456C203.672 150.194 204.445 150.587 205.219 150.587Z" fill="#888071"/>
<path d="M149.18 30.339C150.305 29.9207 157.594 38.828 161.227 47.6615C164.859 56.495 166.172 61.3423 165.844 62.8925C165.703 63.5814 161.508 67.3953 155.297 72.5872C148.852 77.9512 144.75 81.2484 142.922 81.0762C141.117 80.9039 140.602 66.1897 142.102 52.8533C143.602 39.517 147.375 31.028 149.18 30.339Z" fill="#FED0AB"/>
</svg>
