<svg width="72" height="72" viewBox="0 0 72 72" fill="none" xmlns="http://www.w3.org/2000/svg">
<path d="M37.297 16.7729H34.825C28.949 16.7729 24.141 21.5809 24.141 27.4569V44.3899C24.141 50.2659 28.949 55.074 34.825 55.074H37.297C43.173 55.074 47.981 50.2659 47.981 44.3899V27.4569C47.981 21.5809 43.173 16.7729 37.297 16.7729V16.7729Z" fill="#D0CFCE"/>
<path d="M36.061 22.1121C35.5114 22.1136 34.9848 22.3327 34.5962 22.7213C34.2076 23.1099 33.9886 23.6365 33.987 24.1861V30.0201C33.9888 30.5695 34.208 31.0958 34.5966 31.4842C34.9851 31.8726 35.5116 32.0915 36.061 32.0931C36.6104 32.0915 37.1369 31.8726 37.5254 31.4842C37.914 31.0958 38.1332 30.5695 38.135 30.0201V24.1861C38.1334 23.6365 37.9144 23.1099 37.5258 22.7213C37.1372 22.3327 36.6106 22.1136 36.061 22.1121V22.1121Z" fill="#3F3F3F"/>
<path d="M35.136 18.177C38.163 19.476 41.04 21.34 41.375 26.05C41.763 31.505 39.745 41.719 39.095 46.907C38.642 50.534 36.848 52.214 34.465 54.117C33.265 55.078 39.732 54.961 42.395 53.404C44.681 52.068 46.895 49.775 46.922 50.5L47.245 24.695C47.245 24.695 46.308 17.758 38.679 17.755C38.679 17.755 31.027 17.362 35.136 18.177V18.177Z" fill="#9B9B9A"/>
<path d="M38.83 54.5011H33.293C28.323 54.5011 24.258 50.4361 24.258 45.4671V26.3801C24.258 21.4111 28.324 17.3461 33.293 17.3461H38.829C43.799 17.3461 47.864 21.4111 47.864 26.3801V45.4671C47.864 50.4361 43.798 54.5011 38.829 54.5011H38.83Z" stroke="black" stroke-width="2" stroke-miterlimit="10" stroke-linecap="round" stroke-linejoin="round"/>
<path d="M36.145 32.155H35.977C35.439 32.1537 34.9234 31.9394 34.543 31.559C34.1626 31.1786 33.9483 30.663 33.947 30.125V24.08C33.947 22.964 34.861 22.051 35.977 22.051H36.145C37.261 22.051 38.175 22.964 38.175 24.081V30.127C38.175 31.243 37.261 32.157 36.145 32.157V32.155Z" stroke="black" stroke-width="2" stroke-miterlimit="10" stroke-linecap="round" stroke-linejoin="round"/>
<path d="M41.331 60.016L36.115 65.232" stroke="black" stroke-width="2" stroke-miterlimit="10" stroke-linecap="round" stroke-linejoin="round"/>
<path d="M30.857 60.016L36.073 65.232" stroke="black" stroke-width="2" stroke-miterlimit="10" stroke-linecap="round" stroke-linejoin="round"/>
<path d="M30.857 11.892L36.073 6.67603" stroke="black" stroke-width="2" stroke-miterlimit="10" stroke-linecap="round" stroke-linejoin="round"/>
<path d="M41.331 11.892L36.115 6.67603" stroke="black" stroke-width="2" stroke-miterlimit="10" stroke-linecap="round" stroke-linejoin="round"/>
</svg>
