<svg width="38" height="46" viewBox="0 0 38 46" fill="none" xmlns="http://www.w3.org/2000/svg">
<path d="M19 8.41663L20.1041 7.31246C19.8112 7.01985 19.414 6.8555 19 6.8555C18.5859 6.8555 18.1888 7.01985 17.8958 7.31246L19 8.41663ZM19 25.0833L17.8958 26.1875C18.1888 26.4801 18.5859 26.6444 19 26.6444C19.414 26.6444 19.8112 26.4801 20.1041 26.1875L19 25.0833ZM13.7291 11.4791C13.4531 11.7753 13.3029 12.1671 13.31 12.5719C13.3172 12.9767 13.4812 13.3629 13.7674 13.6492C14.0537 13.9354 14.4399 14.0994 14.8447 14.1066C15.2495 14.1137 15.6413 13.9635 15.9375 13.6875L13.7291 11.4791ZM22.0625 13.6875C22.2055 13.841 22.378 13.9641 22.5697 14.0495C22.7614 14.1349 22.9683 14.1808 23.1781 14.1845C23.3879 14.1882 23.5962 14.1496 23.7908 14.071C23.9854 13.9925 24.1621 13.8755 24.3105 13.7271C24.4588 13.5788 24.5758 13.402 24.6544 13.2075C24.733 13.0129 24.7716 12.8045 24.7679 12.5947C24.7642 12.3849 24.7183 12.178 24.6329 11.9863C24.5475 11.7947 24.4243 11.6222 24.2708 11.4791L22.0625 13.6875ZM15.9375 19.8125C15.7944 19.6589 15.6219 19.5358 15.4303 19.4504C15.2386 19.365 15.0317 19.3191 14.8219 19.3154C14.6121 19.3117 14.4037 19.3503 14.2091 19.4289C14.0146 19.5075 13.8379 19.6244 13.6895 19.7728C13.5411 19.9212 13.4241 20.0979 13.3456 20.2925C13.267 20.487 13.2284 20.6954 13.2321 20.9052C13.2358 21.115 13.2817 21.3219 13.3671 21.5136C13.4525 21.7052 13.5756 21.8777 13.7291 22.0208L15.9375 19.8125ZM24.2708 22.0208C24.4243 21.8777 24.5475 21.7052 24.6329 21.5136C24.7183 21.3219 24.7642 21.115 24.7679 20.9052C24.7716 20.6954 24.733 20.487 24.6544 20.2925C24.5758 20.0979 24.4588 19.9212 24.3105 19.7728C24.1621 19.6244 23.9854 19.5075 23.7908 19.4289C23.5962 19.3503 23.3879 19.3117 23.1781 19.3154C22.9683 19.3191 22.7614 19.365 22.5697 19.4504C22.378 19.5358 22.2055 19.6589 22.0625 19.8125L24.2708 22.0208ZM0.770813 18.8333V27.1666H3.89581V18.8333H0.770813ZM37.2291 27.1666V18.8333H34.1041V27.1666H37.2291ZM17.4375 8.41663V25.0833H20.5625V8.41663H17.4375ZM17.8958 7.31246L13.7291 11.4791L15.9375 13.6875L20.1041 9.52079L17.8958 7.31246ZM17.8958 9.52079L22.0625 13.6875L24.2708 11.4791L20.1041 7.31246L17.8958 9.52079ZM20.1041 23.9791L15.9375 19.8125L13.7291 22.0208L17.8958 26.1875L20.1041 23.9791ZM20.1041 26.1875L24.2708 22.0208L22.0625 19.8125L17.8958 23.9791L20.1041 26.1875ZM37.2291 18.8333C37.2291 13.9986 35.3086 9.36196 31.8899 5.94333C28.4713 2.52469 23.8347 0.604126 19 0.604126V3.72913C23.0058 3.72913 26.8477 5.32045 29.6802 8.15304C32.5128 10.9856 34.1041 14.8274 34.1041 18.8333H37.2291ZM19 45.3958C21.3939 45.3958 23.7643 44.9243 25.976 44.0082C28.1876 43.0921 30.1972 41.7493 31.8899 40.0566C33.5827 38.3639 34.9254 36.3543 35.8415 34.1426C36.7576 31.931 37.2291 29.5605 37.2291 27.1666H34.1041C34.1041 31.1725 32.5128 35.0143 29.6802 37.8469C26.8477 40.6795 23.0058 42.2708 19 42.2708V45.3958ZM0.770813 27.1666C0.770813 32.0013 2.69138 36.638 6.11001 40.0566C9.52864 43.4752 14.1653 45.3958 19 45.3958V42.2708C14.9941 42.2708 11.1523 40.6795 8.31972 37.8469C5.48714 35.0143 3.89581 31.1725 3.89581 27.1666H0.770813ZM3.89581 18.8333C3.89581 14.8274 5.48714 10.9856 8.31972 8.15304C11.1523 5.32045 14.9941 3.72913 19 3.72913V0.604126C14.1653 0.604126 9.52864 2.52469 6.11001 5.94333C2.69138 9.36196 0.770813 13.9986 0.770813 18.8333H3.89581Z" fill="#0B8EAB" fill-opacity="0.4"/>
</svg>
